<?xml version="1.0" encoding="utf-8"?>
<!-- Svg Vector Icons : http://www.onlinewebfonts.com/icon -->
<!DOCTYPE svg PUBLIC "-//W3C//DTD SVG 1.1//EN" "http://www.w3.org/Graphics/SVG/1.1/DTD/svg11.dtd">
<svg version="1.1" xmlns="http://www.w3.org/2000/svg" xmlns:xlink="http://www.w3.org/1999/xlink" x="0px" y="0px" viewBox="0 0 1000 1000" enable-background="new 0 0 1000 1000" xml:space="preserve">
<metadata> Svg Vector Icons : http://www.onlinewebfonts.com/icon </metadata>
<g><path d="M500,22c263.9,0,478,214,478,478c0,222.7-152.6,409.4-358.7,462.5c-0.1-1.1-0.6-1.9-0.6-3V826.5c0-39.2-11-68.6-32.7-88.2c23.9-2.2,45.4-5.8,64.2-10.9c18.9-4.3,38.6-12.7,58.8-25.1c19.6-10.2,36.3-23.9,50.1-41.3c13.1-15.3,24-37,32.7-65.3c8.8-26.1,13.1-57.4,13.1-93.6c0-49.4-16.3-91.8-48.9-127.4c15.2-37.1,13.4-79.5-5.5-127.4c-3.3-0.8-7-1.2-11.2-1.2c-10.4,0-23.4,2.6-38.9,7.7c-21.8,9.5-41.1,18.5-57.8,27.3l-22.9,16.3c-36.8-10.8-74.5-16.3-112.7-16.3c-2.4,0-4.7,0-7.1,0.1c-2.4,0-4.7-0.1-7.1-0.1c-38.8,0-76.4,5.5-112.6,16.4c-6.6-5.1-15.3-10.5-26.2-16.3c-10.9-7.2-28.3-15.2-52.2-24c-16.3-7.1-29.9-10.7-40.8-10.7c-4.7,0-8.8,0.7-12.5,2c-18.2,46.4-19.7,88.9-4.4,127.4c-32.7,34.1-49,76.6-49,127.4c0,34.8,4.4,66.1,13.1,93.8c8,26.1,18.9,47.8,32.7,65.2c13,16,29.8,29.8,50.1,41.4c19.6,10.9,38.8,19.2,57.7,25c18.9,3.6,40.3,7.3,64.2,11c-16.7,13.7-26.8,35.2-30.5,64.2c-8.7,2.9-18.2,5.8-28.3,8.7c-10.2,1.4-21.7,2.6-34.8,3.3c-13.8-0.7-27.6-5.1-41.4-13.1c-13-9.4-24.7-22.5-34.8-39.2c-7.3-13.8-17-24.6-29.4-32.6c-12.4-8.7-22.9-13.5-31.6-14.2l-11.9-3.3c-8.7,0.7-14.9,1.8-18.5,3.3c-2.9,2.2-3.6,4.4-2.1,6.5c0.7,3.6,2.5,6.5,5.4,8.7c2.2,3.7,4.7,6.2,7.6,7.6l4.4,4.3c9.4,3.7,18.5,11.6,27.2,24c8.7,10.9,15.2,21.4,19.6,31.5l6.5,13.1c5.1,16.7,14.2,29.4,27.3,38.1c13.1,10.2,26.9,16.4,41.4,18.5c12.7,3.1,24.9,4.6,36.7,4.6c2.3,0,4.6-0.1,6.9-0.2c3.4,0.2,6.7,0.3,9.8,0.3c9.6,0,17.9-0.8,25-2.5l14.2-1.1c0,15.2,0,33.8,0,55.6c0,20.3,0,31.5,0,33.6c0,1-0.5,1.9-0.6,3C174.6,909.4,22,722.7,22,500C22,235.9,235.9,22,500,22 M501.2,978c-0.4,0-0.8,0.1-1.2,0.1c-0.3,0-0.7-0.1-1.1-0.1H501.2 M500,10C229.8,10,10,229.8,10,500c0,223.4,151.2,418.3,367.8,474l13.2,3.4l1.6-13.1c0.3-1.1,0.7-2.8,0.7-4.9v-33.6v-55.6v-12.9l-12.9,1l-14.2,1.1l-0.9,0.1l-0.9,0.2c-6.1,1.4-13.6,2.2-22.3,2.2c-2.9,0-6-0.1-9.2-0.2l-0.6,0l-0.6,0c-2.1,0.1-4.2,0.2-6.3,0.2c-10.9,0-22.3-1.4-33.8-4.3l-0.6-0.1l-0.6-0.1c-12.3-1.8-24.4-7.2-35.8-16.1l-0.3-0.3l-0.4-0.2c-10.8-7.2-18.2-17.6-22.5-31.7l-0.3-1l-0.4-0.9l-6.4-12.8c-4.7-10.9-11.8-22.2-20.9-33.7c-9.3-13.2-19.2-22-30-26.9l-2.7-2.7l-1.5-1.5l-1.9-0.9c0,0-0.9-0.5-2.3-2.8c1.1-0.1,2.4-0.3,3.8-0.4l9.9,2.7l1.1,0.3l1.1,0.1c4.4,0.4,12.4,2.7,25.7,12l0.2,0.1l0.2,0.1c10.7,6.9,19,16.1,25.3,28.1l0.2,0.3l0.2,0.3c11,18,23.8,32.3,38,42.6l0.5,0.3l0.5,0.3c15.4,8.9,31.1,13.9,46.8,14.7l0.7,0l0.6,0c12.9-0.7,24.9-1.9,35.8-3.4l0.8-0.1l0.8-0.2c9.3-2.7,18.7-5.6,28.7-8.9l7.2-2.4l0.9-7.5c3.3-25.8,12.1-44.8,26.2-56.4l20.7-17l-26.4-4.1c-22.8-3.5-44-7.1-63.1-10.8c-17.9-5.6-36.4-13.6-54.8-23.9c-19-10.8-34.7-23.8-46.6-38.5c-12.7-16-23-36.6-30.5-61.2c-8.3-26.5-12.6-56.9-12.6-90.3c0-47.4,15.4-87.5,45.7-119.1l5.3-5.5l-2.8-7.1c-13.4-33.8-12.7-71.7,2.2-112.8c1.1-0.1,2.3-0.2,3.6-0.2c9.2,0,21.3,3.3,36.1,9.7l0.3,0.1l0.4,0.1c22.9,8.4,39.6,16,49.7,22.7l0.5,0.3l0.5,0.3c10.3,5.5,18.5,10.6,24.5,15.2l4.9,3.8l5.9-1.8c35-10.6,71.8-15.9,109.2-15.9c2.3,0,4.6,0,6.9,0.1h0.2h0.2c2.3,0,4.6-0.1,6.9-0.1c36.9,0,73.7,5.3,109.3,15.8l5.6,1.6l4.7-3.4l22.2-15.8c15.8-8.2,34.6-17.1,55.8-26.3c14-4.6,25.6-7,34.6-7c0.8,0,1.7,0,2.5,0.1c15.3,42.2,16.3,79.9,3.1,112.1l-2.9,7l5.1,5.6c30.8,33.5,45.8,72.5,45.8,119.3c0,35.1-4.2,65.3-12.5,89.8l-0.1,0.1l0,0.2c-8.1,26.5-18.3,47.1-30.3,61.1l-0.2,0.2l-0.1,0.2c-12.5,15.9-28.1,28.7-46.2,38.1l-0.4,0.2l-0.4,0.2c-19,11.6-37.6,19.6-55.3,23.6l-0.2,0.1l-0.2,0.1c-18,4.9-38.8,8.4-62.1,10.5l-27.2,2.5l20.2,18.3c19.1,17.3,28.8,44,28.8,79.4v132.9c0,2.2,0.4,3.9,0.7,4.8l1.5,13.2l13.4-3.4C838.8,918.3,990,723.4,990,500C990,229.8,770.2,10,500,10L500,10z M501.2,966h-2.3v23.9c-0.2,0-0.3,0-0.5,0c0.6,0.1,1.1,0.1,1.6,0.1c0.5,0,1,0,1.5-0.1l-0.3,0L501.2,966L501.2,966z"/></g>
</svg>